<svg xmlns="http://www.w3.org/2000/svg" viewBox="0 0 120 120" fill="none" stroke="#C8840A" stroke-width="1.2" stroke-linecap="round" stroke-linejoin="round">
  <!-- Bottom piece - irregular fried shape -->
  <path d="M18 86 C14 84 12 78 15 72 C18 66 25 62 32 63 C40 64 48 68 52 72 C56 76 56 84 52 88 C48 92 40 94 32 93 C24 92 20 88 18 86Z"/>
  <!-- Rough edges texture -->
  <path d="M18 86 C17 83 15 80 16 76" stroke-opacity="0.6"/>
  <path d="M32 63 C30 62 28 64 26 63" stroke-opacity="0.6"/>
  <path d="M52 72 C54 74 55 77 54 80" stroke-opacity="0.6"/>
  <!-- Middle piece -->
  <path d="M42 72 C38 68 36 60 40 54 C44 48 52 46 60 47 C68 48 76 52 78 58 C80 64 77 72 72 76 C67 80 56 80 50 78 C46 76 44 74 42 72Z"/>
  <!-- Crispy lines on middle -->
  <path d="M50 56 C52 54 56 56 54 60" stroke-opacity="0.7"/>
  <path d="M62 50 C65 52 64 56 61 57" stroke-opacity="0.7"/>
  <!-- Top piece -->
  <path d="M58 56 C56 50 57 42 63 38 C69 34 77 34 83 38 C89 42 92 50 90 57 C88 64 82 68 76 68 C68 68 62 62 58 56Z"/>
  <!-- Rough batter edges top -->
  <path d="M60 56 C58 52 58 48 61 44" stroke-opacity="0.6"/>
  <path d="M83 38 C86 40 88 43 88 47" stroke-opacity="0.6"/>
  <path d="M68 36 C67 34 65 36 63 35" stroke-opacity="0.6"/>
  <!-- Oil drops at base -->
  <circle cx="20" cy="97" r="1.5" fill="#C8840A" stroke="none"/>
  <circle cx="35" cy="100" r="2" fill="#C8840A" stroke="none"/>
  <circle cx="50" cy="98" r="1.5" fill="#C8840A" stroke="none"/>
  <circle cx="28" cy="102" r="1" fill="#C8840A" stroke="none"/>
</svg>
