<svg xmlns="http://www.w3.org/2000/svg" viewBox="0 0 120 120" fill="none" stroke="#C8840A" stroke-width="1.2" stroke-linecap="round" stroke-linejoin="round">
  <!-- Bowl base ellipse -->
  <ellipse cx="60" cy="88" rx="34" ry="8"/>
  <!-- Bowl walls -->
  <path d="M26 88 C26 88 22 75 22 70 C22 65 26 60 60 60 C94 60 98 65 98 70 C98 75 94 88 94 88"/>
  <!-- Rice mound dome -->
  <path d="M34 62 C34 62 36 42 60 40 C84 42 86 62 86 62"/>
  <!-- Small tempe piece (rectangle, left side) -->
  <rect x="30" y="78" width="14" height="8" rx="2"/>
  <line x1="33" y1="78" x2="33" y2="86"/>
  <line x1="36" y1="78" x2="36" y2="86"/>
  <line x1="39" y1="78" x2="39" y2="86"/>
  <!-- Small sambal blob (right side) -->
  <path d="M76 78 C76 78 79 75 82 77 C85 79 84 84 81 84 C78 84 75 82 76 78Z"/>
  <!-- Steam lines -->
  <path d="M48 36 C48 36 46 32 48 28 C50 24 48 20 48 20"/>
  <path d="M60 34 C60 34 58 30 60 26 C62 22 60 18 60 18"/>
  <path d="M72 36 C72 36 70 32 72 28 C74 24 72 20 72 20"/>
</svg>
