<svg xmlns="http://www.w3.org/2000/svg" viewBox="0 0 120 120" fill="none" stroke="#C8840A" stroke-width="1.2" stroke-linecap="round" stroke-linejoin="round">
  <!-- Stick 1 diagonal left -->
  <line x1="28" y1="108" x2="52" y2="18"/>
  <!-- Eggs on stick 1 -->
  <ellipse cx="32" cy="96" rx="8" ry="10" transform="rotate(-12 32 96)"/>
  <line x1="26" y1="93" x2="38" y2="90"/>
  <line x1="26" y1="99" x2="38" y2="96"/>
  <ellipse cx="38" cy="74" rx="8" ry="10" transform="rotate(-12 38 74)"/>
  <line x1="32" y1="71" x2="44" y2="68"/>
  <line x1="32" y1="77" x2="44" y2="74"/>
  <ellipse cx="44" cy="52" rx="8" ry="10" transform="rotate(-12 44 52)"/>
  <line x1="38" y1="49" x2="50" y2="46"/>
  <line x1="38" y1="55" x2="50" y2="52"/>
  <!-- Stick 2 diagonal right -->
  <line x1="68" y1="108" x2="92" y2="18"/>
  <!-- Eggs on stick 2 -->
  <ellipse cx="72" cy="96" rx="8" ry="10" transform="rotate(-12 72 96)"/>
  <line x1="66" y1="93" x2="78" y2="90"/>
  <line x1="66" y1="99" x2="78" y2="96"/>
  <ellipse cx="78" cy="74" rx="8" ry="10" transform="rotate(-12 78 74)"/>
  <line x1="72" y1="71" x2="84" y2="68"/>
  <line x1="72" y1="77" x2="84" y2="74"/>
  <ellipse cx="84" cy="52" rx="8" ry="10" transform="rotate(-12 84 52)"/>
  <line x1="78" y1="49" x2="90" y2="46"/>
  <line x1="78" y1="55" x2="90" y2="52"/>
  <!-- Drip lines at bottom of sticks -->
  <path d="M28 108 C27 110 27 112 28 114"/>
  <path d="M68 108 C67 110 67 112 68 114"/>
</svg>
