<svg xmlns="http://www.w3.org/2000/svg" viewBox="0 0 120 120" fill="none" stroke="#C8840A" stroke-width="1.2" stroke-linecap="round" stroke-linejoin="round">
  <!-- Stick 1 -->
  <line x1="36" y1="110" x2="50" y2="14"/>
  <!-- Meat chunks on stick 1 -->
  <path d="M30 95 C28 92 30 87 34 85 C38 83 44 84 45 88 C46 92 44 97 40 98 C36 99 32 98 30 95Z"/>
  <line x1="32" y1="91" x2="44" y2="87" stroke-opacity="0.7"/>
  <line x1="31" y1="95" x2="43" y2="91" stroke-opacity="0.7"/>
  <path d="M35 76 C33 73 35 68 39 66 C43 64 48 66 49 70 C50 74 47 78 43 79 C39 80 37 79 35 76Z"/>
  <line x1="37" y1="72" x2="48" y2="68" stroke-opacity="0.7"/>
  <path d="M40 57 C38 54 40 49 44 47 C48 45 53 47 54 51 C55 55 52 59 48 60 C44 61 42 60 40 57Z"/>
  <line x1="42" y1="53" x2="53" y2="49" stroke-opacity="0.7"/>
  <!-- Stick 2 -->
  <line x1="70" y1="110" x2="84" y2="14"/>
  <!-- Meat chunks on stick 2 -->
  <path d="M64 95 C62 92 64 87 68 85 C72 83 78 84 79 88 C80 92 78 97 74 98 C70 99 66 98 64 95Z"/>
  <line x1="66" y1="91" x2="78" y2="87" stroke-opacity="0.7"/>
  <line x1="65" y1="95" x2="77" y2="91" stroke-opacity="0.7"/>
  <path d="M69 76 C67 73 69 68 73 66 C77 64 82 66 83 70 C84 74 81 78 77 79 C73 80 71 79 69 76Z"/>
  <line x1="71" y1="72" x2="82" y2="68" stroke-opacity="0.7"/>
  <path d="M74 57 C72 54 74 49 78 47 C82 45 87 47 88 51 C89 55 86 59 82 60 C78 61 76 60 74 57Z"/>
  <line x1="76" y1="53" x2="87" y2="49" stroke-opacity="0.7"/>
  <!-- Flame shapes below -->
  <path d="M40 106 C38 104 38 100 42 98 C44 102 42 106 40 106Z" fill="rgba(200,132,10,0.3)"/>
  <path d="M52 108 C50 105 51 101 54 100 C55 103 54 108 52 108Z" fill="rgba(200,132,10,0.3)"/>
  <path d="M70 106 C68 104 68 100 72 98 C74 102 72 106 70 106Z" fill="rgba(200,132,10,0.3)"/>
  <path d="M84 108 C82 105 82 101 86 100 C87 103 86 108 84 108Z" fill="rgba(200,132,10,0.3)"/>
  <!-- Drip lines -->
  <path d="M42 98 C41 101 41 103 42 106"/>
  <path d="M76 98 C75 101 75 103 76 106"/>
</svg>
