<svg xmlns="http://www.w3.org/2000/svg" viewBox="0 0 120 120" fill="none" stroke="#C8840A" stroke-width="1.2" stroke-linecap="round" stroke-linejoin="round">
  <!-- Tall glass (slightly tapered wider at top) -->
  <path d="M30 96 L28 36 L72 36 L70 96 Z"/>
  <!-- Glass bottom curve -->
  <path d="M30 96 C30 100 70 100 70 96"/>
  <!-- Liquid level line ~70% full -->
  <line x1="29" y1="60" x2="71" y2="60" stroke-opacity="0.6"/>
  <!-- Liquid fill suggestion -->
  <path d="M29 60 C29 60 36 64 50 63 C64 62 71 60 71 60" stroke-opacity="0.5"/>
  <!-- Steam lines rising -->
  <path d="M42 52 C40 48 42 44 40 40 C38 36 40 32 38 28"/>
  <path d="M58 52 C60 48 58 44 60 40 C62 36 60 32 62 28"/>
  <!-- Ginger root shape (right side) -->
  <path d="M82 72 C80 66 82 60 86 58 C90 56 94 58 96 62 C98 66 97 72 94 75 C91 78 84 78 82 72Z"/>
  <!-- Ginger protrusions/bumps -->
  <path d="M94 62 C97 58 102 58 104 62 C106 66 104 70 100 70"/>
  <path d="M86 58 C84 54 84 50 87 48 C90 50 90 55 88 58"/>
  <path d="M96 75 C98 78 98 82 96 84 C93 82 93 78 94 76"/>
  <!-- Texture lines on ginger -->
  <line x1="85" y1="65" x2="93" y2="63" stroke-opacity="0.5"/>
  <line x1="84" y1="70" x2="92" y2="68" stroke-opacity="0.5"/>
</svg>
